<svg xmlns="http://www.w3.org/2000/svg" viewBox="0 0 124.45 124.45"><defs><style>.cls-1{fill:#09f;}.cls-2{fill:#fff;}</style></defs><g id="Layer_2" data-name="Layer 2"><g id="Layer_2-2" data-name="Layer 2"><g id="logo-favicon"><rect class="cls-1" width="124.45" height="124.45"/><path class="cls-2" d="M95.73,84.45h-27L63.27,97.94H46.14L75,26.5h15.1l28.17,71.44H101.08Zm-4.5-12.64-8.79-24-8.88,24Z"/><path class="cls-2" d="M45.15,93.84l6.59-16.33a18.25,18.25,0,0,0-18.08-16,11,11,0,1,1,0-22.09H35a9.31,9.31,0,1,0,0-7.18H33.66a18.23,18.23,0,1,0,0,36.45,11,11,0,0,1,0,22.09H28.71l.09-.46c.57-2.5,4.86-8.76,4.86-8.76s-3.38,3.87-11,8.19S6.23,97.94,6.23,97.94H33.66A18.13,18.13,0,0,0,45.15,93.84ZM43.6,32.25A3.57,3.57,0,1,1,40,35.81,3.57,3.57,0,0,1,43.6,32.25Z"/></g></g></g></svg>