<svg xmlns="http://www.w3.org/2000/svg" viewBox="0 0 90.196 68.927"><defs><style>.cls-1{fill:none;stroke:#09f;stroke-linecap:round;stroke-linejoin:round;stroke-width:5px;}</style></defs><g id="Layer_2" data-name="Layer 2"><g id="Layer_1-2" data-name="Layer 1"><path class="cls-1" d="M10.629,58.645s9.468-1.1,17.235.634S45.1,66.427,45.1,66.427v-55.8S35.63,5.209,27.864,3.477s-17.235-.634-17.235-.634v55.8"/><path class="cls-1" d="M10.629,9.6C5.8,10.06,2.5,10.625,2.5,10.625v55.8A117.706,117.706,0,0,1,23.12,64.8,146.489,146.489,0,0,1,45.1,66.427h0A146.5,146.5,0,0,1,67.077,64.8,117.7,117.7,0,0,1,87.7,66.427v-55.8S84.4,10.06,79.567,9.6"/><path class="cls-1" d="M79.567,58.645s-9.468-1.1-17.234.634S45.1,66.427,45.1,66.427v-55.8s9.468-5.416,17.235-7.148,17.234-.634,17.234-.634v55.8"/></g></g></svg>