<svg xmlns="http://www.w3.org/2000/svg" viewBox="0 0 188.99 188.99"><defs><style>.cls-1{fill:#09f;}.cls-2{fill:#fff;}</style></defs><g id="Layer_2" data-name="Layer 2"><g id="Layer_2-2" data-name="Layer 2"><g id="logo-stacked-socialmedia"><rect class="cls-1" width="188.99" height="188.99"/><path class="cls-2" d="M89.2,85a8.75,8.75,0,0,0-6.81-3.25c-4,0-7.71,2.83-7.71,8.12s3.78,8.08,7.66,8.08a9.28,9.28,0,0,0,7-3.41V99a11.62,11.62,0,0,1-6.92,2.25c-6.76,0-11.64-4.82-11.64-11.37A11.25,11.25,0,0,1,82.44,78.34a11.54,11.54,0,0,1,6.76,2.1Z"/><path class="cls-2" d="M110.75,78.34h3.77v22.91h-3.77V97.58a9.17,9.17,0,0,1-7.45,3.67c-5.5,0-10.58-3.88-10.58-11.53,0-7.5,5-11.38,10.58-11.38A9,9,0,0,1,110.75,82ZM96.59,89.72c0,4.66,2.63,8.18,7.13,8.18S111,94.07,111,89.77c0-5.61-3.88-8.07-7.24-8.07C100,81.7,96.59,84.42,96.59,89.72Z"/><path class="cls-2" d="M120.61,78.34h3.77v2.83a6.33,6.33,0,0,1,5.4-2.83,6.52,6.52,0,0,1,5.92,3.51,7.28,7.28,0,0,1,6.56-3.51c6.44,0,7.07,5.4,7.07,8.5v14.41h-3.77V87.41c0-2.46-.32-5.71-3.88-5.71-4.35,0-4.82,4.19-4.82,6.81v12.74h-3.78V87.73c0-1.52,0-6-3.93-6-4.3,0-4.77,4.45-4.77,7.07v12.48h-3.77Z"/><path class="cls-2" d="M57.71,67.58h.78a5.35,5.35,0,1,0,0-4.12h-.78a10.48,10.48,0,0,0,0,21,6.35,6.35,0,1,1,0,12.7H54.87a2,2,0,0,1,.05-.26c.32-1.44,2.79-5,2.79-5a26,26,0,0,1-6.33,4.71c-4.38,2.48-9.45,4.72-9.45,4.72H57.71a10.48,10.48,0,1,0,0-21,6.36,6.36,0,0,1,0-12.71Zm5.72-4.11a2.05,2.05,0,1,1-2.06,2A2,2,0,0,1,63.43,63.47Z"/><path class="cls-2" d="M38.72,122.09H26l-2.58,6.36H15.34L28.93,94.77H36l13.28,33.68H41.25Zm-2.12-6-4.14-11.31-4.19,11.31Z"/><path class="cls-2" d="M51.51,105l4.29,12.4L60.38,105h4l4.57,12.77L73.46,105h7.21l-9.48,23.5H66.82l-4.54-12.94L58,128.45H53.57L44.26,105Z"/><path class="cls-2" d="M97.88,105H105v23.5H97.88V125a7.34,7.34,0,0,1-6.52,3.41,10.44,10.44,0,0,1-8.25-3.36,11.65,11.65,0,0,1-3.21-8.24A12.5,12.5,0,0,1,83.31,108,10.58,10.58,0,0,1,91,105a8.28,8.28,0,0,1,6.92,3.2Zm-9,7.7a5.5,5.5,0,0,0-1.63,4,5.7,5.7,0,0,0,1.48,3.95,5.84,5.84,0,0,0,4.2,1.73,5.3,5.3,0,0,0,3.7-1.53,5.84,5.84,0,0,0,.1-8.2,6,6,0,0,0-4-1.53A5.6,5.6,0,0,0,88.84,112.65Z"/><path class="cls-2" d="M109.53,105h7.11v4.19a7.88,7.88,0,0,1,2.77-3.06,6.81,6.81,0,0,1,3.8-.94,7,7,0,0,1,2.32.35l-.39,6.66a6.78,6.78,0,0,0-3.21-.79,4.66,4.66,0,0,0-3.56,1.49c-1.58,1.67-1.73,4.05-1.73,5.92v9.68h-7.11Z"/><path class="cls-2" d="M143.15,128.45h-5.37c-3.31,0-6.22-.59-8.79-3.16a11.82,11.82,0,0,1-3.31-8.49,12.5,12.5,0,0,1,3.36-8.69,11.49,11.49,0,0,1,8.44-3.16,11.61,11.61,0,0,1,8.74,3.3,12.57,12.57,0,0,1,3.11,8.94v.74H132.89a6,6,0,0,0,1.33,3.76,4.8,4.8,0,0,0,3.66,1.38h9m-4.11-9.38a5.47,5.47,0,0,0-1.43-2.57,5.2,5.2,0,0,0-7,.2,4.88,4.88,0,0,0-1.23,2.37Z"/><path class="cls-2" d="M149.27,124.6a2.11,2.11,0,1,1-2.11,2.11A2.09,2.09,0,0,1,149.27,124.6Z"/><path class="cls-2" d="M160.85,121.38a3.34,3.34,0,0,0-2.18-.78,2.72,2.72,0,0,0-2,4.54,2.76,2.76,0,0,0,2,.83,3.23,3.23,0,0,0,2.13-.81v3a5.12,5.12,0,0,1-2.64.63,5.58,5.58,0,0,1-4-1.55,5.44,5.44,0,0,1-1.62-3.94,5.54,5.54,0,0,1,1.72-4.08,5.47,5.47,0,0,1,3.93-1.46,5.84,5.84,0,0,1,2.62.58Z"/><path class="cls-2" d="M170.31,117.77h3.33v11h-3.33v-1.6a3.45,3.45,0,0,1-3.06,1.6,4.9,4.9,0,0,1-3.87-1.58,5.47,5.47,0,0,1-1.51-3.87,5.9,5.9,0,0,1,1.6-4.17,5,5,0,0,1,3.59-1.41,3.89,3.89,0,0,1,3.25,1.51Zm-4.24,3.61a2.58,2.58,0,0,0-.77,1.88,2.64,2.64,0,0,0,.7,1.85,2.72,2.72,0,0,0,2,.81,2.47,2.47,0,0,0,1.74-.71,2.64,2.64,0,0,0,.81-1.95,2.61,2.61,0,0,0-.77-1.9,2.77,2.77,0,0,0-1.85-.72A2.63,2.63,0,0,0,166.07,121.38Z"/></g></g></g></svg>