<svg xmlns="http://www.w3.org/2000/svg" viewBox="0 0 188.99 188.99"><defs><style>.cls-1{fill:#09f;}.cls-2{fill:#fff;}</style></defs><g id="Layer_2" data-name="Layer 2"><g id="Layer_2-2" data-name="Layer 2"><g id="logo-inline-socialmedia"><rect class="cls-1" width="188.99" height="188.99"/><path class="cls-2" d="M42.33,96.91A5.25,5.25,0,0,0,38.26,95a4.84,4.84,0,0,0,0,9.67,5.53,5.53,0,0,0,4.19-2v2.69a7,7,0,0,1-4.13,1.35,6.84,6.84,0,1,1,0-13.68,6.91,6.91,0,0,1,4,1.25Z"/><path class="cls-2" d="M55.19,93h2.25v13.68H55.19v-2.2a5.49,5.49,0,0,1-4.45,2.2c-3.28,0-6.32-2.32-6.32-6.89s3-6.79,6.32-6.79a5.39,5.39,0,0,1,4.45,2.16Zm-8.45,6.79c0,2.79,1.56,4.88,4.25,4.88s4.32-2.28,4.32-4.85C55.31,96.44,53,95,51,95,48.77,95,46.74,96.6,46.74,99.76Z"/><path class="cls-2" d="M61.07,93h2.25v1.69A3.79,3.79,0,0,1,66.55,93a3.88,3.88,0,0,1,3.53,2.1A4.34,4.34,0,0,1,74,93c3.85,0,4.23,3.22,4.23,5.07v8.61H76V98.38c0-1.47-.18-3.41-2.31-3.41-2.6,0-2.88,2.51-2.88,4.07v7.61H68.52V98.57c0-.91,0-3.6-2.35-3.6-2.57,0-2.85,2.66-2.85,4.23v7.45H61.07Z"/><path class="cls-2" d="M23.53,86.55H24a3.2,3.2,0,1,0,0-2.47h-.46a6.26,6.26,0,0,0,0,12.52,3.79,3.79,0,0,1,0,7.58h-1.7l0-.16a15.25,15.25,0,0,1,1.67-3,15.51,15.51,0,0,1-3.78,2.82c-2.61,1.48-5.64,2.82-5.64,2.82h9.42a6.26,6.26,0,0,0,0-12.51,3.79,3.79,0,0,1,0-7.58Zm3.41-2.46a1.23,1.23,0,1,1-1.22,1.23A1.23,1.23,0,0,1,26.94,84.09Z"/><path class="cls-2" d="M94.34,102.85H86.75l-1.54,3.8H80.39l8.1-20.11h4.25l7.93,20.11H95.85Zm-1.27-3.56L90.6,92.54l-2.5,6.75Z"/><path class="cls-2" d="M102,92.61l2.57,7.41,2.73-7.41h2.37l2.73,7.63,2.7-7.63h4.31l-5.66,14h-2.61l-2.71-7.73-2.58,7.73h-2.61l-5.56-14Z"/><path class="cls-2" d="M129.65,92.61h4.24v14h-4.24v-2a4.38,4.38,0,0,1-3.89,2,6.23,6.23,0,0,1-4.92-2,6.93,6.93,0,0,1-1.92-4.92,7.54,7.54,0,0,1,2-5.31,6.35,6.35,0,0,1,4.57-1.8,5,5,0,0,1,4.13,1.92Zm-5.39,4.6a3.26,3.26,0,0,0-1,2.39,3.36,3.36,0,0,0,.89,2.36,3.47,3.47,0,0,0,2.5,1,3.13,3.13,0,0,0,2.21-.91,3.48,3.48,0,0,0,.06-4.9,3.54,3.54,0,0,0-2.36-.91A3.33,3.33,0,0,0,124.26,97.21Z"/><path class="cls-2" d="M136.61,92.61h4.24v2.51a4.71,4.71,0,0,1,1.65-1.83,4.1,4.1,0,0,1,2.27-.56,4.22,4.22,0,0,1,1.39.21l-.24,4a3.94,3.94,0,0,0-1.91-.47,2.78,2.78,0,0,0-2.13.88,5,5,0,0,0-1,3.54v5.78h-4.24Z"/><path class="cls-2" d="M156.68,106.65h-3.21a6.82,6.82,0,0,1-5.25-1.89,7.06,7.06,0,0,1-2-5.07,7.47,7.47,0,0,1,2-5.19,7.77,7.77,0,0,1,10.26.09,7.49,7.49,0,0,1,1.85,5.33v.45h-9.81a3.6,3.6,0,0,0,.79,2.24,2.89,2.89,0,0,0,2.19.82h5.36m-2.45-5.6a3.3,3.3,0,0,0-.85-1.53,2.93,2.93,0,0,0-4.89,1.53Z"/><path class="cls-2" d="M160.33,104.35a1.26,1.26,0,1,1-1.26,1.26A1.24,1.24,0,0,1,160.33,104.35Z"/><path class="cls-2" d="M167.24,102.43a2,2,0,0,0-1.3-.47,1.54,1.54,0,0,0-1.59,1.6,1.61,1.61,0,0,0,.42,1.11,1.64,1.64,0,0,0,1.2.5,2,2,0,0,0,1.27-.49v1.8a3.07,3.07,0,0,1-1.58.37,3.34,3.34,0,0,1-2.39-.92,3.25,3.25,0,0,1-1-2.36,3.31,3.31,0,0,1,1-2.43,3.27,3.27,0,0,1,2.35-.87,3.6,3.6,0,0,1,1.56.34Z"/><path class="cls-2" d="M172.88,100.27h2v6.58h-2v-.95a2,2,0,0,1-1.82.95,2.92,2.92,0,0,1-2.31-.94,3.26,3.26,0,0,1-.9-2.31,3.54,3.54,0,0,1,1-2.49,3,3,0,0,1,2.15-.84,2.29,2.29,0,0,1,1.93.9Zm-2.53,2.16a1.54,1.54,0,0,0-.45,1.12,1.57,1.57,0,0,0,.41,1.1,1.66,1.66,0,0,0,1.18.49,1.51,1.51,0,0,0,1-.43,1.64,1.64,0,0,0,0-2.3,1.65,1.65,0,0,0-1.1-.43A1.57,1.57,0,0,0,170.35,102.43Z"/></g></g></g></svg>