<svg xmlns="http://www.w3.org/2000/svg" viewBox="0 0 128.57 55.76"><defs><style>.cls-1{fill:#a6a8ab;}.cls-2{fill:#09f;}</style></defs><g id="Layer_2" data-name="Layer 2"><g id="Layer_2-2" data-name="Layer 2"><g id="logo-stacked-colour"><path class="cls-1" d="M60,20.13a7.11,7.11,0,0,0-5.54-2.64c-3.28,0-6.26,2.3-6.26,6.6a6.15,6.15,0,0,0,6.22,6.55,7.53,7.53,0,0,0,5.7-2.76v3.66a9.44,9.44,0,0,1-5.62,1.83A9.05,9.05,0,0,1,45,24.13a9.13,9.13,0,0,1,9.45-9.37A9.35,9.35,0,0,1,60,16.47Z"/><path class="cls-1" d="M77.49,14.76h3.06V33.37H77.49v-3a7.47,7.47,0,0,1-6,3c-4.47,0-8.6-3.15-8.6-9.37s4.09-9.24,8.6-9.24a7.33,7.33,0,0,1,6,2.94ZM66,24c0,3.79,2.13,6.64,5.79,6.64s5.88-3.11,5.88-6.6c0-4.55-3.15-6.55-5.88-6.55C68.76,17.49,66,19.7,66,24Z"/><path class="cls-1" d="M85.49,14.76h3.07v2.3a5.12,5.12,0,0,1,4.38-2.3,5.29,5.29,0,0,1,4.81,2.85,5.91,5.91,0,0,1,5.33-2.85c5.23,0,5.74,4.39,5.74,6.9V33.37h-3.06V22.13c0-2-.26-4.64-3.15-4.64-3.54,0-3.92,3.4-3.92,5.53V33.37H95.62v-11c0-1.23,0-4.89-3.19-4.89-3.49,0-3.87,3.62-3.87,5.74V33.37H85.49Z"/><path class="cls-1" d="M34.41,6H35a4.35,4.35,0,1,0,0-3.35h-.63a8.52,8.52,0,0,0,0,17,5.16,5.16,0,1,1,0,10.31H32.1a1.55,1.55,0,0,1,0-.21,21.3,21.3,0,0,1,2.27-4.09,21.21,21.21,0,0,1-5.14,3.82c-3.56,2-7.67,3.84-7.67,3.84H34.41a8.52,8.52,0,0,0,0-17A5.16,5.16,0,1,1,34.41,6Zm4.64-3.34a1.67,1.67,0,1,1,0,3.33,1.67,1.67,0,0,1,0-3.33Z"/><path class="cls-2" d="M19,50.29H8.65L6.56,55.46H0L11,28.11h5.78L27.6,55.46H21Zm-1.73-4.84L13.9,36.27l-3.4,9.18Z"/><path class="cls-2" d="M29.37,36.37l3.49,10.08,3.72-10.08H39.8l3.72,10.38L47.2,36.37h5.85L45.36,55.46H41.8L38.12,45,34.6,55.46H31.05L23.49,36.37Z"/><path class="cls-2" d="M67,36.37h5.78V55.46H67V52.69a6,6,0,0,1-5.29,2.77A8.46,8.46,0,0,1,55,52.73,9.44,9.44,0,0,1,52.43,46a10.23,10.23,0,0,1,2.77-7.22,8.63,8.63,0,0,1,6.22-2.44A6.71,6.71,0,0,1,67,39Zm-7.34,6.25a4.5,4.5,0,0,0-1.32,3.25,4.61,4.61,0,0,0,1.2,3.21A4.76,4.76,0,0,0,63,50.49a4.3,4.3,0,0,0,3-1.25,4.76,4.76,0,0,0,.08-6.66,4.85,4.85,0,0,0-3.21-1.24A4.57,4.57,0,0,0,59.69,42.62Z"/><path class="cls-2" d="M76.5,36.37h5.77v3.41a6.38,6.38,0,0,1,2.25-2.49,5.53,5.53,0,0,1,3.09-.76,5.78,5.78,0,0,1,1.88.28l-.32,5.41a5.45,5.45,0,0,0-2.61-.64,3.76,3.76,0,0,0-2.88,1.2c-1.29,1.37-1.41,3.29-1.41,4.82v7.86H76.5Z"/><path class="cls-2" d="M103.8,55.46H99.44c-2.69,0-5.06-.48-7.14-2.57A9.58,9.58,0,0,1,89.61,46a10.19,10.19,0,0,1,2.73-7.06,10.61,10.61,0,0,1,14,.12,10.23,10.23,0,0,1,2.52,7.26v.61H95.47a4.87,4.87,0,0,0,1.08,3,3.86,3.86,0,0,0,3,1.13h7.3m-3.33-7.62a4.55,4.55,0,0,0-1.16-2.09,4.25,4.25,0,0,0-5.66.16,4,4,0,0,0-1,1.93Z"/><path class="cls-2" d="M108.77,52.33a1.72,1.72,0,1,1-1.71,1.72A1.7,1.7,0,0,1,108.77,52.33Z"/><path class="cls-2" d="M118.18,49.72a2.71,2.71,0,0,0-1.77-.64,2.14,2.14,0,0,0-1.54.6,2.32,2.32,0,0,0-.06,3.09,2.25,2.25,0,0,0,1.64.67,2.66,2.66,0,0,0,1.73-.65v2.44a4.16,4.16,0,0,1-2.15.51,4.51,4.51,0,0,1-3.25-1.26,4.37,4.37,0,0,1-1.32-3.2,4.41,4.41,0,0,1,4.59-4.5,4.78,4.78,0,0,1,2.13.47Z"/><path class="cls-2" d="M125.86,46.78h2.71v9h-2.71v-1.3a2.81,2.81,0,0,1-2.49,1.3,4,4,0,0,1-3.14-1.28A4.45,4.45,0,0,1,119,51.32a4.79,4.79,0,0,1,1.3-3.39,4.05,4.05,0,0,1,2.91-1.15A3.14,3.14,0,0,1,125.86,48Zm-3.45,2.94a2.1,2.1,0,0,0-.62,1.52,2.15,2.15,0,0,0,.57,1.51,2.24,2.24,0,0,0,1.6.66,2,2,0,0,0,1.41-.59,2.12,2.12,0,0,0,.66-1.58,2.15,2.15,0,0,0-.62-1.54,2.26,2.26,0,0,0-1.51-.58A2.14,2.14,0,0,0,122.41,49.72Z"/></g></g></g></svg>