<svg xmlns="http://www.w3.org/2000/svg" viewBox="0 0 218.75 33.67"><defs><style>.cls-1{fill:#fff;}</style></defs><g id="Layer_2" data-name="Layer 2"><g id="Layer_2-2" data-name="Layer 2"><g id="logo-inline-white"><path class="cls-1" d="M38.39,20.13a7.11,7.11,0,0,0-5.53-2.64c-3.28,0-6.26,2.3-6.26,6.6a6.14,6.14,0,0,0,6.21,6.55,7.56,7.56,0,0,0,5.71-2.76v3.66a9.48,9.48,0,0,1-5.62,1.83,9.05,9.05,0,0,1-9.45-9.24,9.13,9.13,0,0,1,9.45-9.37,9.31,9.31,0,0,1,5.49,1.71Z"/><path class="cls-1" d="M55.89,14.76H59V33.37H55.89v-3a7.46,7.46,0,0,1-6,3c-4.47,0-8.6-3.15-8.6-9.37s4.09-9.24,8.6-9.24a7.33,7.33,0,0,1,6,2.94ZM44.39,24c0,3.79,2.13,6.64,5.79,6.64s5.88-3.11,5.88-6.6c0-4.55-3.15-6.55-5.88-6.55C47.16,17.49,44.39,19.7,44.39,24Z"/><path class="cls-1" d="M63.89,14.76H67v2.3a5.12,5.12,0,0,1,4.38-2.3,5.31,5.31,0,0,1,4.82,2.85,5.9,5.9,0,0,1,5.32-2.85c5.23,0,5.75,4.39,5.75,6.9V33.37H84.16V22.13c0-2-.26-4.64-3.15-4.64-3.53,0-3.92,3.4-3.92,5.53V33.37H74v-11c0-1.23,0-4.89-3.2-4.89-3.49,0-3.87,3.62-3.87,5.74V33.37H63.89Z"/><path class="cls-1" d="M12.81,6h.63a4.35,4.35,0,1,0,0-3.35h-.63a8.52,8.52,0,0,0,0,17,5.16,5.16,0,1,1,0,10.31H10.5c0-.07,0-.14,0-.21a21.3,21.3,0,0,1,2.27-4.09,21.21,21.21,0,0,1-5.14,3.82C4.12,31.55,0,33.37,0,33.37H12.81a8.52,8.52,0,0,0,0-17A5.16,5.16,0,0,1,12.81,6Zm4.64-3.34a1.67,1.67,0,1,1-1.66,1.67A1.67,1.67,0,0,1,17.45,2.68Z"/><path class="cls-1" d="M109.16,28.2H98.83l-2.09,5.17H90.18L101.21,6H107l10.79,27.36h-6.57Zm-1.72-4.84-3.36-9.18-3.4,9.18Z"/><path class="cls-1" d="M119.55,14.28,123,24.36l3.71-10.08H130l3.71,10.38,3.69-10.38h5.85l-7.7,19.09H132L128.3,22.86l-3.52,10.51h-3.55l-7.57-19.09Z"/><path class="cls-1" d="M157.21,14.28H163V33.37h-5.77V30.6a6,6,0,0,1-5.3,2.77,8.45,8.45,0,0,1-6.69-2.73,9.44,9.44,0,0,1-2.61-6.7,10.17,10.17,0,0,1,2.77-7.22,8.62,8.62,0,0,1,6.21-2.44,6.73,6.73,0,0,1,5.62,2.6Zm-7.34,6.25a4.5,4.5,0,0,0-1.32,3.25,4.61,4.61,0,0,0,1.2,3.21,4.74,4.74,0,0,0,3.41,1.4,4.31,4.31,0,0,0,3-1.24,4.76,4.76,0,0,0,.08-6.66A4.86,4.86,0,0,0,153,19.25,4.55,4.55,0,0,0,149.87,20.53Z"/><path class="cls-1" d="M166.67,14.28h5.78v3.41a6.31,6.31,0,0,1,2.25-2.49,5.52,5.52,0,0,1,3.08-.76,5.8,5.8,0,0,1,1.89.28l-.32,5.41a5.48,5.48,0,0,0-2.61-.64,3.8,3.8,0,0,0-2.89,1.2c-1.28,1.37-1.4,3.29-1.4,4.82v7.86h-5.78Z"/><path class="cls-1" d="M194,33.37h-4.36c-2.69,0-5.06-.48-7.14-2.57a9.58,9.58,0,0,1-2.69-6.9,10.19,10.19,0,0,1,2.73-7.06,10.6,10.6,0,0,1,13.95.12A10.2,10.2,0,0,1,199,24.22v.61H185.64a4.89,4.89,0,0,0,1.09,3,3.85,3.85,0,0,0,3,1.13H197m-3.33-7.62a4.51,4.51,0,0,0-1.17-2.09,4.24,4.24,0,0,0-5.65.16,4,4,0,0,0-1,1.93Z"/><path class="cls-1" d="M199,30.24A1.72,1.72,0,1,1,197.23,32,1.7,1.7,0,0,1,199,30.24Z"/><path class="cls-1" d="M208.36,27.63a2.71,2.71,0,0,0-1.77-.64,2.17,2.17,0,0,0-1.55.6,2.24,2.24,0,0,0-.62,1.58,2.19,2.19,0,0,0,.57,1.51,2.22,2.22,0,0,0,1.64.67,2.66,2.66,0,0,0,1.73-.65v2.44a4.18,4.18,0,0,1-2.15.51A4.51,4.51,0,0,1,203,32.39a4.38,4.38,0,0,1-1.32-3.2A4.5,4.5,0,0,1,203,25.88a4.45,4.45,0,0,1,3.2-1.19,4.81,4.81,0,0,1,2.13.47Z"/><path class="cls-1" d="M216,24.69h2.71v9H216v-1.3a2.81,2.81,0,0,1-2.49,1.3,4,4,0,0,1-3.14-1.28,4.45,4.45,0,0,1-1.22-3.14,4.79,4.79,0,0,1,1.29-3.39,4.08,4.08,0,0,1,2.92-1.15A3.15,3.15,0,0,1,216,25.92Zm-3.45,2.94a2.1,2.1,0,0,0-.62,1.52,2.15,2.15,0,0,0,.57,1.51,2.24,2.24,0,0,0,1.6.66,2,2,0,0,0,1.41-.59,2.15,2.15,0,0,0,.66-1.58,2.12,2.12,0,0,0-.63-1.54,2.22,2.22,0,0,0-1.5-.58A2.14,2.14,0,0,0,212.59,27.63Z"/></g></g></g></svg>