<svg xmlns="http://www.w3.org/2000/svg" viewBox="0 0 51.922 19.788"><defs><style>.cls-1{fill:#09f;}.cls-2{fill:#666;}</style></defs><g id="Layer_2" data-name="Layer 2"><g id="Layer_1-2" data-name="Layer 1"><path class="cls-1" d="M6.993,19.645l-.585-2.426h-3.3l-.6,2.426H0L3.254,9.413H6.222L9.49,19.645ZM5.237,13.038q-.086-.3-.171-.628T4.9,11.725q-.078-.357-.15-.728c-.067.381-.143.744-.228,1.092s-.167.663-.243.949l-.656,2.368H5.908Z"/><path class="cls-1" d="M15.769,15.535c-.067-.323-.131-.652-.193-.985s-.107-.642-.135-.927H15.4c-.029.285-.071.6-.129.949s-.123.687-.2,1.02l-.9,4.053H11.5l-1.87-7.792h2.227l.742,3.982q.07.357.128.72t.107.7a6.038,6.038,0,0,1,.064.606h.058c.019-.181.05-.4.092-.671s.088-.52.136-.763.081-.416.1-.521l.9-4.053h2.483l.87,4.039q.043.2.1.563t.107.75c.034.257.055.475.065.656h.042q.043-.4.129-.942t.2-1.084l.827-3.982h2.169l-1.926,7.792H16.6Z"/><path class="cls-1" d="M25.6,11.7a3.334,3.334,0,0,1,2.234.678,2.584,2.584,0,0,1,.792,2.076v5.2H27.043L26.6,18.589h-.057a4.069,4.069,0,0,1-.642.685,2.036,2.036,0,0,1-.756.392,3.865,3.865,0,0,1-1.042.122,2.463,2.463,0,0,1-1.149-.264,1.924,1.924,0,0,1-.806-.814,2.88,2.88,0,0,1-.3-1.391,2.11,2.11,0,0,1,.821-1.834,4.39,4.39,0,0,1,2.419-.649l1.256-.043V14.45a1.27,1.27,0,0,0-.272-.9.974.974,0,0,0-.742-.285,3.425,3.425,0,0,0-1.013.164,8.641,8.641,0,0,0-1.056.407l-.7-1.442a6.093,6.093,0,0,1,1.391-.513A6.948,6.948,0,0,1,25.6,11.7Zm.072,4.367a1.68,1.68,0,0,0-1.163.371,1.228,1.228,0,0,0-.336.9.88.88,0,0,0,.236.692.906.906,0,0,0,.621.207,1.25,1.25,0,0,0,.934-.407,1.585,1.585,0,0,0,.393-1.148v-.642Z"/><path class="cls-1" d="M34.806,11.71c.124,0,.257,0,.4.015a2.064,2.064,0,0,1,.328.042l-.186,2a2.413,2.413,0,0,0-.3-.049,3.622,3.622,0,0,0-.429-.022,2.015,2.015,0,0,0-.635.107,1.741,1.741,0,0,0-.585.335,1.663,1.663,0,0,0-.428.607,2.358,2.358,0,0,0-.164.935v3.967H30.525V11.853h1.712l.343,1.313h.114a3.343,3.343,0,0,1,.528-.728,2.536,2.536,0,0,1,.721-.528A1.935,1.935,0,0,1,34.806,11.71Z"/><path class="cls-1" d="M39.629,11.71a3.7,3.7,0,0,1,1.8.414,2.846,2.846,0,0,1,1.171,1.2,4.1,4.1,0,0,1,.413,1.926v1.028H38.373a2.242,2.242,0,0,0,.464,1.413,1.548,1.548,0,0,0,1.249.514,5.137,5.137,0,0,0,1.291-.15,5.86,5.86,0,0,0,1.192-.464v1.641a4.353,4.353,0,0,1-1.149.421,7.357,7.357,0,0,1-1.534.136,4.318,4.318,0,0,1-1.976-.436,3.149,3.149,0,0,1-1.356-1.32,4.535,4.535,0,0,1-.492-2.226,5.1,5.1,0,0,1,.449-2.276,3.107,3.107,0,0,1,1.256-1.363A3.716,3.716,0,0,1,39.629,11.71Zm.043,1.513a1.08,1.08,0,0,0-.856.4,2.107,2.107,0,0,0-.4,1.241h2.5a2.337,2.337,0,0,0-.143-.842,1.337,1.337,0,0,0-.414-.585A1.07,1.07,0,0,0,39.672,13.223Z"/><path class="cls-2" d="M43.921,19.277a.487.487,0,0,1,.124-.38.447.447,0,0,1,.307-.109.422.422,0,0,1,.445.489.481.481,0,0,1-.132.379.454.454,0,0,1-.313.117.431.431,0,0,1-.307-.117A.5.5,0,0,1,43.921,19.277Z"/><path class="cls-2" d="M47.345,19.744a1.77,1.77,0,0,1-.876-.212,1.439,1.439,0,0,1-.595-.657,2.611,2.611,0,0,1-.216-1.139,2.629,2.629,0,0,1,.227-1.175A1.474,1.474,0,0,1,46.5,15.9a1.821,1.821,0,0,1,.887-.212,2.443,2.443,0,0,1,.551.062,1.814,1.814,0,0,1,.434.15l-.2.533a3.54,3.54,0,0,0-.39-.125,1.68,1.68,0,0,0-.413-.058.988.988,0,0,0-.591.168,1,1,0,0,0-.351.5,2.464,2.464,0,0,0-.117.818,2.383,2.383,0,0,0,.117.8,1.015,1.015,0,0,0,.347.5.933.933,0,0,0,.566.168,2.01,2.01,0,0,0,.533-.065,2.7,2.7,0,0,0,.431-.161v.569a1.689,1.689,0,0,1-.417.157A2.324,2.324,0,0,1,47.345,19.744Z"/><path class="cls-2" d="M50.586,15.692a1.415,1.415,0,0,1,1,.314,1.319,1.319,0,0,1,.332,1v2.665h-.46l-.124-.555h-.029a2.311,2.311,0,0,1-.325.354,1.017,1.017,0,0,1-.379.208,1.832,1.832,0,0,1-.53.066,1.362,1.362,0,0,1-.591-.124.943.943,0,0,1-.416-.383,1.271,1.271,0,0,1-.153-.654,1.052,1.052,0,0,1,.43-.9,2.375,2.375,0,0,1,1.329-.347l.621-.022v-.234A.94.94,0,0,0,51.1,16.4a.757.757,0,0,0-.551-.19,1.623,1.623,0,0,0-.544.092,4.289,4.289,0,0,0-.493.208l-.2-.482a2.853,2.853,0,0,1,.577-.237A2.389,2.389,0,0,1,50.586,15.692Zm.176,2.088a1.685,1.685,0,0,0-.931.234.691.691,0,0,0-.259.577.591.591,0,0,0,.182.481.71.71,0,0,0,.475.154,1.1,1.1,0,0,0,.759-.274,1.077,1.077,0,0,0,.307-.843v-.351Z"/><path class="cls-2" d="M16.36,10.475a3.452,3.452,0,0,1-1.712-.414,2.818,2.818,0,0,1-1.163-1.284,5.119,5.119,0,0,1-.421-2.227,5.144,5.144,0,0,1,.442-2.3,2.893,2.893,0,0,1,1.206-1.3,3.579,3.579,0,0,1,1.734-.414,4.723,4.723,0,0,1,1.077.122,3.625,3.625,0,0,1,.849.292L17.987,4a6.881,6.881,0,0,0-.764-.243,3.2,3.2,0,0,0-.806-.114,1.939,1.939,0,0,0-1.156.328,1.964,1.964,0,0,0-.685.971,4.824,4.824,0,0,0-.228,1.6,4.674,4.674,0,0,0,.228,1.556,1.977,1.977,0,0,0,.678.97,1.823,1.823,0,0,0,1.106.328A3.885,3.885,0,0,0,17.4,9.262a5.18,5.18,0,0,0,.842-.314v1.113a3.437,3.437,0,0,1-.814.307A4.63,4.63,0,0,1,16.36,10.475Z"/><path class="cls-2" d="M22.7,2.555a2.765,2.765,0,0,1,1.962.613,2.583,2.583,0,0,1,.65,1.955v5.209h-.9l-.243-1.084h-.057a4.557,4.557,0,0,1-.635.692,2.019,2.019,0,0,1-.742.406,3.578,3.578,0,0,1-1.035.129,2.673,2.673,0,0,1-1.156-.243,1.841,1.841,0,0,1-.813-.749,2.476,2.476,0,0,1-.3-1.277,2.062,2.062,0,0,1,.842-1.763,4.668,4.668,0,0,1,2.6-.678l1.213-.042V5.266A1.836,1.836,0,0,0,23.7,3.939a1.471,1.471,0,0,0-1.077-.371,3.171,3.171,0,0,0-1.063.178,8.448,8.448,0,0,0-.964.407l-.385-.942a5.627,5.627,0,0,1,1.127-.464A4.713,4.713,0,0,1,22.7,2.555Zm.343,4.081a3.279,3.279,0,0,0-1.82.457,1.351,1.351,0,0,0-.506,1.127,1.162,1.162,0,0,0,.356.942,1.393,1.393,0,0,0,.928.3,2.147,2.147,0,0,0,1.484-.536,2.1,2.1,0,0,0,.6-1.648V6.593Z"/><path class="cls-2" d="M35.468,2.54A2.34,2.34,0,0,1,37.3,3.2a3.16,3.16,0,0,1,.6,2.148v4.98H36.667V5.409a2.209,2.209,0,0,0-.35-1.356A1.288,1.288,0,0,0,35.226,3.6a1.638,1.638,0,0,0-1.463.642,3.337,3.337,0,0,0-.435,1.87v4.224H32.086V5.409A2.8,2.8,0,0,0,31.929,4.4a1.209,1.209,0,0,0-.471-.607,1.493,1.493,0,0,0-.813-.2,1.8,1.8,0,0,0-1.128.321,1.725,1.725,0,0,0-.585.935,5.718,5.718,0,0,0-.171,1.513v3.967H27.52V2.683h1L28.7,3.725h.071a2.313,2.313,0,0,1,.557-.664,2.224,2.224,0,0,1,.728-.392,2.673,2.673,0,0,1,.827-.129,2.79,2.79,0,0,1,1.385.314,1.839,1.839,0,0,1,.813.971h.086a2.261,2.261,0,0,1,.977-.971A2.89,2.89,0,0,1,35.468,2.54Z"/><path class="cls-2" d="M11.408,6.279a2.653,2.653,0,0,0-.877-.906,7.786,7.786,0,0,0-1.42-.706A9.762,9.762,0,0,1,7.9,4.081a1.784,1.784,0,0,1-.657-.613,1.681,1.681,0,0,1-.2-.856,1.492,1.492,0,0,1,.2-.778,1.333,1.333,0,0,1,.592-.521,2.281,2.281,0,0,1,.978-.186A4.547,4.547,0,0,1,10,1.284a7.591,7.591,0,0,1,1.092.386l.4-1.1A6.548,6.548,0,0,0,10.281.157,6.235,6.235,0,0,0,8.839,0,3.853,3.853,0,0,0,7.234.314a2.556,2.556,0,0,0-1.085.892A2.421,2.421,0,0,0,5.757,2.6a2.958,2.958,0,0,0,.285,1.349,2.688,2.688,0,0,0,.835.963,6.085,6.085,0,0,0,1.335.714,9.1,9.1,0,0,1,1.327.62,1.982,1.982,0,0,1,.692.636,1.6,1.6,0,0,1,.207.841,1.588,1.588,0,0,1-.236.871,1.5,1.5,0,0,1-.7.571,2.953,2.953,0,0,1-1.163.2,5.93,5.93,0,0,1-.867-.07l.369,1.158c.148.007.289.025.441.025a4.407,4.407,0,0,0,1.819-.343,2.715,2.715,0,0,0,1.185-.977,2.748,2.748,0,0,0,.421-1.549A2.659,2.659,0,0,0,11.408,6.279Z"/></g></g></svg>