<svg xmlns="http://www.w3.org/2000/svg" viewBox="0 0 120.344 15.576"><defs><style>.cls-1{fill:#09f;}.cls-2{fill:#fff;}</style></defs><g id="Layer_2" data-name="Layer 2"><g id="Layer_1-2" data-name="Layer 1"><path class="cls-1" d="M52.334,15.278l-.874-3.622H46.538l-.895,3.622h-3.75L46.751,0h4.432l4.88,15.278ZM49.713,5.412q-.128-.447-.256-.937t-.245-1.023q-.117-.532-.223-1.087-.15.852-.342,1.63t-.362,1.417l-.98,3.537h3.409Z"/><path class="cls-1" d="M65.439,9.141q-.15-.725-.288-1.47t-.2-1.385h-.064q-.063.639-.191,1.417t-.3,1.523l-1.342,6.052H59.067L56.276,3.644H59.6l1.108,5.945q.107.533.192,1.076t.16,1.044q.073.5.095.905h.086q.042-.4.138-1t.2-1.14q.1-.543.149-.778l1.342-6.051h3.708l1.3,6.03c.042.2.092.479.149.842s.11.735.16,1.118.081.711.1.98h.064q.063-.6.191-1.406t.3-1.619l1.235-5.945h3.239L70.638,15.278H66.674Z"/><path class="cls-1" d="M80.12,3.409a4.982,4.982,0,0,1,3.335,1.012,3.862,3.862,0,0,1,1.182,3.1v7.756H82.272l-.66-1.577h-.086a6.108,6.108,0,0,1-.958,1.023,3.047,3.047,0,0,1-1.13.586,5.764,5.764,0,0,1-1.555.181,3.656,3.656,0,0,1-1.716-.394,2.878,2.878,0,0,1-1.2-1.215,4.294,4.294,0,0,1-.448-2.077,3.148,3.148,0,0,1,1.225-2.738,6.557,6.557,0,0,1,3.612-.97l1.875-.064V7.522a1.9,1.9,0,0,0-.405-1.343,1.455,1.455,0,0,0-1.108-.426A5.107,5.107,0,0,0,78.2,6a13.082,13.082,0,0,0-1.576.608L75.581,4.453a9.163,9.163,0,0,1,2.078-.767A10.438,10.438,0,0,1,80.12,3.409Zm.107,6.521a2.508,2.508,0,0,0-1.737.554,1.835,1.835,0,0,0-.5,1.342,1.319,1.319,0,0,0,.352,1.034,1.351,1.351,0,0,0,.927.308,1.873,1.873,0,0,0,1.4-.607,2.371,2.371,0,0,0,.585-1.715V9.887Z"/><path class="cls-1" d="M93.864,3.43c.185,0,.384.008.6.022a2.988,2.988,0,0,1,.49.064L94.674,6.5a3.851,3.851,0,0,0-.448-.075,5.727,5.727,0,0,0-.639-.031,3,3,0,0,0-.948.159,2.579,2.579,0,0,0-.874.5,2.468,2.468,0,0,0-.639.905,3.519,3.519,0,0,0-.245,1.4v5.924H87.472V3.644h2.557L90.54,5.6h.171A4.922,4.922,0,0,1,91.5,4.517a3.8,3.8,0,0,1,1.076-.788A2.886,2.886,0,0,1,93.864,3.43Z"/><path class="cls-1" d="M101.066,3.43a5.524,5.524,0,0,1,2.685.618,4.264,4.264,0,0,1,1.748,1.79,6.125,6.125,0,0,1,.617,2.877v1.534H99.191a3.329,3.329,0,0,0,.693,2.11,2.307,2.307,0,0,0,1.864.767,7.692,7.692,0,0,0,1.928-.224,8.746,8.746,0,0,0,1.78-.692v2.45a6.514,6.514,0,0,1-1.715.629,10.957,10.957,0,0,1-2.291.2,6.456,6.456,0,0,1-2.951-.65,4.7,4.7,0,0,1-2.025-1.971,6.771,6.771,0,0,1-.735-3.324,7.633,7.633,0,0,1,.671-3.4,4.635,4.635,0,0,1,1.875-2.035A5.553,5.553,0,0,1,101.066,3.43Zm.064,2.259a1.614,1.614,0,0,0-1.278.6,3.148,3.148,0,0,0-.6,1.854h3.729a3.48,3.48,0,0,0-.213-1.257,1.991,1.991,0,0,0-.618-.874A1.6,1.6,0,0,0,101.13,5.689Z"/><path class="cls-2" d="M108.4,14.835a.73.73,0,0,1,.185-.567.667.667,0,0,1,.458-.163.629.629,0,0,1,.665.73.723.723,0,0,1-.2.567.683.683,0,0,1-.469.174.644.644,0,0,1-.458-.174A.751.751,0,0,1,108.4,14.835Z"/><path class="cls-2" d="M113.509,15.533a2.644,2.644,0,0,1-1.308-.316,2.159,2.159,0,0,1-.889-.982,3.913,3.913,0,0,1-.322-1.7,3.932,3.932,0,0,1,.338-1.755,2.212,2.212,0,0,1,.922-.992,2.728,2.728,0,0,1,1.324-.316,3.6,3.6,0,0,1,.823.092,2.766,2.766,0,0,1,.649.224l-.3.8a5.114,5.114,0,0,0-.583-.186,2.447,2.447,0,0,0-.616-.087,1.478,1.478,0,0,0-.883.251,1.5,1.5,0,0,0-.523.741,3.689,3.689,0,0,0-.174,1.221,3.571,3.571,0,0,0,.174,1.188,1.516,1.516,0,0,0,.518.742,1.394,1.394,0,0,0,.845.25,2.925,2.925,0,0,0,.8-.1,3.9,3.9,0,0,0,.643-.24v.851a2.591,2.591,0,0,1-.622.234A3.5,3.5,0,0,1,113.509,15.533Z"/><path class="cls-2" d="M118.349,9.482a2.116,2.116,0,0,1,1.5.469,1.978,1.978,0,0,1,.5,1.494v3.979h-.687l-.185-.829h-.044a3.464,3.464,0,0,1-.485.529,1.546,1.546,0,0,1-.567.311,2.754,2.754,0,0,1-.79.1,2.035,2.035,0,0,1-.883-.186,1.407,1.407,0,0,1-.622-.572,1.9,1.9,0,0,1-.229-.976,1.573,1.573,0,0,1,.644-1.346,3.554,3.554,0,0,1,1.984-.518l.926-.032v-.349a1.4,1.4,0,0,0-.289-1.014,1.125,1.125,0,0,0-.823-.284,2.425,2.425,0,0,0-.812.137,6.5,6.5,0,0,0-.736.31l-.294-.719a4.288,4.288,0,0,1,.861-.354A3.589,3.589,0,0,1,118.349,9.482Zm.261,3.118a2.508,2.508,0,0,0-1.389.349,1.032,1.032,0,0,0-.387.861.888.888,0,0,0,.272.72,1.069,1.069,0,0,0,.709.229,1.641,1.641,0,0,0,1.133-.409,1.6,1.6,0,0,0,.458-1.259v-.523Z"/><path class="cls-2" d="M8.013,11.7a3.617,3.617,0,0,1-.556,2.046,3.587,3.587,0,0,1-1.565,1.292,5.85,5.85,0,0,1-2.4.452,11.771,11.771,0,0,1-1.348-.075A8.683,8.683,0,0,1,.952,15.2,4.866,4.866,0,0,1,0,14.85V13.229a9.76,9.76,0,0,0,1.612.546,7.77,7.77,0,0,0,1.952.245A3.877,3.877,0,0,0,5.1,13.756,1.975,1.975,0,0,0,6.024,13a2.093,2.093,0,0,0,.311-1.15,2.114,2.114,0,0,0-.273-1.112,2.6,2.6,0,0,0-.915-.84,11.961,11.961,0,0,0-1.753-.82,8.076,8.076,0,0,1-1.763-.942,3.547,3.547,0,0,1-1.1-1.273A3.9,3.9,0,0,1,.151,5.083,3.191,3.191,0,0,1,.669,3.245,3.371,3.371,0,0,1,2.1,2.066a5.1,5.1,0,0,1,2.122-.415,8.2,8.2,0,0,1,1.9.208,8.53,8.53,0,0,1,1.6.547L7.2,3.857A10.135,10.135,0,0,0,5.76,3.348a5.99,5.99,0,0,0-1.574-.207,3.023,3.023,0,0,0-1.292.245,1.755,1.755,0,0,0-.782.688A1.971,1.971,0,0,0,1.848,5.1a2.214,2.214,0,0,0,.264,1.131,2.368,2.368,0,0,0,.867.811,12.777,12.777,0,0,0,1.6.773,10.234,10.234,0,0,1,1.876.933,3.507,3.507,0,0,1,1.16,1.2A3.514,3.514,0,0,1,8.013,11.7Z"/><path class="cls-2" d="M14.16,15.491a4.558,4.558,0,0,1-2.262-.547,3.724,3.724,0,0,1-1.537-1.7,6.757,6.757,0,0,1-.556-2.941,6.812,6.812,0,0,1,.584-3.036,3.818,3.818,0,0,1,1.594-1.715,4.721,4.721,0,0,1,2.29-.547,6.248,6.248,0,0,1,1.424.16,4.816,4.816,0,0,1,1.122.387L16.31,6.931A9.331,9.331,0,0,0,15.3,6.61a4.235,4.235,0,0,0-1.065-.15,2.556,2.556,0,0,0-1.528.433,2.588,2.588,0,0,0-.9,1.282,6.374,6.374,0,0,0-.3,2.112,6.163,6.163,0,0,0,.3,2.055,2.612,2.612,0,0,0,.9,1.282,2.4,2.4,0,0,0,1.461.434,5.063,5.063,0,0,0,1.377-.17,6.826,6.826,0,0,0,1.112-.414v1.47a4.464,4.464,0,0,1-1.075.406A6.11,6.11,0,0,1,14.16,15.491Z"/><path class="cls-2" d="M22.532,5.026a3.657,3.657,0,0,1,2.593.811,3.418,3.418,0,0,1,.857,2.583V15.3H24.8l-.321-1.433H24.4a6.045,6.045,0,0,1-.839.914,2.667,2.667,0,0,1-.981.537,4.713,4.713,0,0,1-1.367.17,3.539,3.539,0,0,1-1.527-.32,2.439,2.439,0,0,1-1.075-.99,3.272,3.272,0,0,1-.4-1.688,2.72,2.72,0,0,1,1.113-2.328,6.142,6.142,0,0,1,3.431-.9l1.6-.057v-.6a2.428,2.428,0,0,0-.5-1.754,1.95,1.95,0,0,0-1.423-.49,4.2,4.2,0,0,0-1.4.236,11.048,11.048,0,0,0-1.273.537l-.509-1.244a7.42,7.42,0,0,1,1.49-.613A6.184,6.184,0,0,1,22.532,5.026Zm.452,5.393a4.349,4.349,0,0,0-2.4.6,1.789,1.789,0,0,0-.669,1.49,1.531,1.531,0,0,0,.472,1.244,1.838,1.838,0,0,0,1.225.4,2.835,2.835,0,0,0,1.961-.707,2.772,2.772,0,0,0,.792-2.177v-.905Z"/><path class="cls-2" d="M40.991,14.059l1.622-5.1V8.722a4.174,4.174,0,0,0-.792-2.838,3.1,3.1,0,0,0-2.414-.876,3.818,3.818,0,0,0-1.744.414A3,3,0,0,0,36.372,6.7h-.114a2.433,2.433,0,0,0-1.074-1.282,3.685,3.685,0,0,0-1.829-.414,3.558,3.558,0,0,0-1.094.169A2.949,2.949,0,0,0,31.3,5.7a3.055,3.055,0,0,0-.736.876H30.47L30.225,5.2h-1.32V15.3h1.64V10.061a7.587,7.587,0,0,1,.226-2,2.282,2.282,0,0,1,.774-1.235A2.366,2.366,0,0,1,33.034,6.4a1.975,1.975,0,0,1,1.075.264,1.592,1.592,0,0,1,.622.8A3.719,3.719,0,0,1,34.939,8.8V15.3h1.64V9.721a4.408,4.408,0,0,1,.575-2.47A2.165,2.165,0,0,1,39.087,6.4a1.7,1.7,0,0,1,1.442.6A2.92,2.92,0,0,1,40.991,8.8Z"/></g></g></svg>