<svg xmlns="http://www.w3.org/2000/svg" viewBox="0 0 32.528 24.25"><defs><style>.cls-1{fill:#09f;}.cls-2{fill:#666;}</style></defs><g id="Layer_2" data-name="Layer 2"><g id="Layer_1-2" data-name="Layer 1"><path class="cls-1" d="M26.609,24.25,25.222,18.5H17.409l-1.42,5.75H10.036L17.747,0h7.035l7.746,24.25ZM22.448,8.59q-.2-.709-.405-1.488t-.389-1.623q-.186-.846-.355-1.725-.238,1.353-.542,2.588T20.183,8.59l-1.556,5.615h5.411Z"/><path class="cls-2" d="M12.143,15.59c-.022-.042-.029-.1-.052-.139a5.566,5.566,0,0,0-1.841-1.9,16.307,16.307,0,0,0-2.978-1.482,20.257,20.257,0,0,1-2.543-1.227A3.744,3.744,0,0,1,3.352,9.555,3.506,3.506,0,0,1,2.933,7.76a3.121,3.121,0,0,1,.419-1.631A2.782,2.782,0,0,1,4.594,5.036a4.79,4.79,0,0,1,2.05-.389,9.51,9.51,0,0,1,2.5.329,15.949,15.949,0,0,1,2.289.809L12.27,3.48a13.665,13.665,0,0,0-2.543-.868A13.027,13.027,0,0,0,6.7,2.283a8.094,8.094,0,0,0-3.367.658A5.355,5.355,0,0,0,1.062,4.812,5.068,5.068,0,0,0,.239,7.73a6.193,6.193,0,0,0,.6,2.828,5.625,5.625,0,0,0,1.751,2.02,12.847,12.847,0,0,0,2.8,1.5,18.829,18.829,0,0,1,2.783,1.3,4.149,4.149,0,0,1,1.452,1.332,3.362,3.362,0,0,1,.434,1.766A3.33,3.33,0,0,1,9.562,20.3,3.142,3.142,0,0,1,8.1,21.5a6.188,6.188,0,0,1-2.438.419,12.344,12.344,0,0,1-3.1-.39A15.415,15.415,0,0,1,0,20.659v2.573a7.778,7.778,0,0,0,1.511.554A13.574,13.574,0,0,0,3.4,24.13a18.521,18.521,0,0,0,2.14.12,9.263,9.263,0,0,0,3.815-.718c.124-.056.213-.141.33-.2Z"/></g></g></svg>